<svg xmlns="http://www.w3.org/2000/svg" viewBox="0 0 111 30" width="120" height="30" aria-hidden="true" role="img">
  <g fill="#E50914"> <!-- Netflix Red -->
    <path d="M105.06233,14.2806261 L110.999156,30 C109.249227,29.7497422 107.500234,29.4366857 105.718437,29.1554972 L102.374168,20.4686475 L98.9371075,28.4375293 C97.2499766,28.1563408 95.5928391,28.061674 93.9057081,27.8432843 L99.9372012,14.0931671 L94.4680851,0 L99.5313525,0 L102.593495,7.87421502 L105.874965,0 L111,0 L105.06233,14.2806261 Z M90.4686475,0 L85.875,0 L85.875,27.25 C87.375,27.344 88.937,27.406 90.469,27.593 L90.469,0 Z M81.906,26.937 C77.719,26.656 73.531,26.406 69.25,26.312 L69.25,0 L73.937,0 L73.937,21.875 C76.625,21.937 79.312,22.156 81.906,22.281 L81.906,26.937 Z M64.25,10.656 L64.25,15.344 L57.844,15.344 L57.844,26 L53.219,26 L53.219,0 L66.344,0 L66.344,4.687 L57.844,4.687 L57.844,10.656 L64.25,10.656 Z M45.344,4.687 L45.344,26.25 C43.781,26.25 42.188,26.25 40.656,26.312 L40.656,4.687 L35.812,4.687 L35.812,0 L50.219,0 L50.219,4.687 L45.344,4.687 Z M30.75,15.593 C28.688,15.593 26.25,15.593 24.5,15.688 L24.5,22.656 C27.25,22.468 30,22.25 32.781,22.156 L32.781,26.656 L19.813,27.688 L19.813,0 L32.781,0 L32.781,4.687 L24.5,4.687 L24.5,11 C26.313,11 29.094,10.905 30.75,10.905 L30.75,15.593 Z M4.781,12.968 L4.781,29.343 C3.094,29.531 1.594,29.75 0,30 L0,0 L4.469,0 L10.562,17.032 L10.562,0 L15.25,0 L15.25,28.062 C13.594,28.344 11.906,28.438 10.125,28.687 L4.781,12.968 Z"/>
  </g>
</svg>
